<svg id="Icon_8" data-name="Icon 8" xmlns="http://www.w3.org/2000/svg" xmlns:xlink="http://www.w3.org/1999/xlink" width="26" height="26" viewBox="0 0 26 26">
  <defs>
    <clipPath id="clip-path">
      <path id="Color" d="M7.167,21.666a2.4,2.4,0,0,1-1.469-.5l-2.244-1.7a2.558,2.558,0,0,1-.53-3.484,2.208,2.208,0,0,0,.251-2.011l-.059-.182A1.991,1.991,0,0,0,1.9,12.473l-.177-.061a2.54,2.54,0,0,1-1.6-3.185l.884-2.811A2.412,2.412,0,0,1,2.223,4.971a2.327,2.327,0,0,1,1.058-.254,2.361,2.361,0,0,1,.765.128,2.028,2.028,0,0,0,.657.109,2.11,2.11,0,0,0,1.268-.431l.139-.106A2.07,2.07,0,0,0,6.9,2.781V2.519A2.506,2.506,0,0,1,9.379,0l2.763,0a2.432,2.432,0,0,1,1.732.726,2.536,2.536,0,0,1,.739,1.814l0,.3a1.931,1.931,0,0,0,.752,1.548l.116.088a1.909,1.909,0,0,0,1.139.381,1.844,1.844,0,0,0,.588-.1l.368-.123a2.44,2.44,0,0,1,.77-.126,2.4,2.4,0,0,1,1.105.269A2.493,2.493,0,0,1,20.7,6.281l.852,2.731a2.549,2.549,0,0,1-1.587,3.174l-.217.072a2.082,2.082,0,0,0-1.311,1.393,2.117,2.117,0,0,0,.281,1.79l.282.406a2.582,2.582,0,0,1-.55,3.5l-2.233,1.686a2.412,2.412,0,0,1-1.465.495,2.492,2.492,0,0,1-.389-.031,2.45,2.45,0,0,1-1.635-1.037l-.128-.186a1.887,1.887,0,0,0-1.528-.844l-.094,0a1.916,1.916,0,0,0-1.546.831l-.251.355a2.452,2.452,0,0,1-1.636,1.023A2.483,2.483,0,0,1,7.167,21.666ZM3.283,6.883A.177.177,0,0,0,3.2,6.9a.256.256,0,0,0-.128.161L2.188,9.877a.387.387,0,0,0,.24.487l.177.06a4.161,4.161,0,0,1,2.575,2.71l.043.13a4.383,4.383,0,0,1-.5,3.924.4.4,0,0,0,.039.55l2.244,1.705a.273.273,0,0,0,.168.057l.036,0a.293.293,0,0,0,.2-.13l.251-.355a4.111,4.111,0,0,1,3.218-1.748h.092a4.092,4.092,0,0,1,3.412,1.776l.128.185a.294.294,0,0,0,.2.13.218.218,0,0,0,.043,0,.26.26,0,0,0,.16-.058l2.233-1.685a.4.4,0,0,0,.074-.535l-.281-.407a4.3,4.3,0,0,1-.577-3.639,4.241,4.241,0,0,1,2.7-2.831l.218-.074a.378.378,0,0,0,.207-.474L18.63,6.925a.341.341,0,0,0-.168-.209.254.254,0,0,0-.12-.03.262.262,0,0,0-.083.014l-.368.123a4.029,4.029,0,0,1-1.274.206,4.093,4.093,0,0,1-2.444-.818l-.117-.088a4.106,4.106,0,0,1-1.613-3.288l0-.3a.383.383,0,0,0-.109-.275.275.275,0,0,0-.2-.088l-2.759,0a.339.339,0,0,0-.308.361v.262A4.256,4.256,0,0,1,7.423,6.142l-.139.106a4.286,4.286,0,0,1-2.578.872,4.2,4.2,0,0,1-1.36-.226.194.194,0,0,0-.062-.011Zm7.552,7.742a3.792,3.792,0,1,1,3.792-3.792A3.8,3.8,0,0,1,10.835,14.625Zm0-5.417a1.625,1.625,0,1,0,1.625,1.625A1.627,1.627,0,0,0,10.835,9.208Z" transform="translate(0 0)"/>
    </clipPath>
  </defs>
  <g id="Group_70" data-name="Group 70" transform="translate(2.165 2.167)">
    <path id="Color-2" data-name="Color" d="M7.167,21.666a2.4,2.4,0,0,1-1.469-.5l-2.244-1.7a2.558,2.558,0,0,1-.53-3.484,2.208,2.208,0,0,0,.251-2.011l-.059-.182A1.991,1.991,0,0,0,1.9,12.473l-.177-.061a2.54,2.54,0,0,1-1.6-3.185l.884-2.811A2.412,2.412,0,0,1,2.223,4.971a2.327,2.327,0,0,1,1.058-.254,2.361,2.361,0,0,1,.765.128,2.028,2.028,0,0,0,.657.109,2.11,2.11,0,0,0,1.268-.431l.139-.106A2.07,2.07,0,0,0,6.9,2.781V2.519A2.506,2.506,0,0,1,9.379,0l2.763,0a2.432,2.432,0,0,1,1.732.726,2.536,2.536,0,0,1,.739,1.814l0,.3a1.931,1.931,0,0,0,.752,1.548l.116.088a1.909,1.909,0,0,0,1.139.381,1.844,1.844,0,0,0,.588-.1l.368-.123a2.44,2.44,0,0,1,.77-.126,2.4,2.4,0,0,1,1.105.269A2.493,2.493,0,0,1,20.7,6.281l.852,2.731a2.549,2.549,0,0,1-1.587,3.174l-.217.072a2.082,2.082,0,0,0-1.311,1.393,2.117,2.117,0,0,0,.281,1.79l.282.406a2.582,2.582,0,0,1-.55,3.5l-2.233,1.686a2.412,2.412,0,0,1-1.465.495,2.492,2.492,0,0,1-.389-.031,2.45,2.45,0,0,1-1.635-1.037l-.128-.186a1.887,1.887,0,0,0-1.528-.844l-.094,0a1.916,1.916,0,0,0-1.546.831l-.251.355a2.452,2.452,0,0,1-1.636,1.023A2.483,2.483,0,0,1,7.167,21.666ZM3.283,6.883A.177.177,0,0,0,3.2,6.9a.256.256,0,0,0-.128.161L2.188,9.877a.387.387,0,0,0,.24.487l.177.06a4.161,4.161,0,0,1,2.575,2.71l.043.13a4.383,4.383,0,0,1-.5,3.924.4.4,0,0,0,.039.55l2.244,1.705a.273.273,0,0,0,.168.057l.036,0a.293.293,0,0,0,.2-.13l.251-.355a4.111,4.111,0,0,1,3.218-1.748h.092a4.092,4.092,0,0,1,3.412,1.776l.128.185a.294.294,0,0,0,.2.13.218.218,0,0,0,.043,0,.26.26,0,0,0,.16-.058l2.233-1.685a.4.4,0,0,0,.074-.535l-.281-.407a4.3,4.3,0,0,1-.577-3.639,4.241,4.241,0,0,1,2.7-2.831l.218-.074a.378.378,0,0,0,.207-.474L18.63,6.925a.341.341,0,0,0-.168-.209.254.254,0,0,0-.12-.03.262.262,0,0,0-.083.014l-.368.123a4.029,4.029,0,0,1-1.274.206,4.093,4.093,0,0,1-2.444-.818l-.117-.088a4.106,4.106,0,0,1-1.613-3.288l0-.3a.383.383,0,0,0-.109-.275.275.275,0,0,0-.2-.088l-2.759,0a.339.339,0,0,0-.308.361v.262A4.256,4.256,0,0,1,7.423,6.142l-.139.106a4.286,4.286,0,0,1-2.578.872,4.2,4.2,0,0,1-1.36-.226.194.194,0,0,0-.062-.011Zm7.552,7.742a3.792,3.792,0,1,1,3.792-3.792A3.8,3.8,0,0,1,10.835,14.625Zm0-5.417a1.625,1.625,0,1,0,1.625,1.625A1.627,1.627,0,0,0,10.835,9.208Z" transform="translate(0 0)" opacity="0.2"/>
  </g>
</svg>
